<svg width="50" height="47" viewBox="0 0 50 47" fill="none" xmlns="http://www.w3.org/2000/svg">
<g clip-path="url(#clip0_87_1585)">
<path d="M30.0725 24.7412C29.7878 24.7412 28.3385 24.7412 25.0518 24.7412C22.4638 24.7412 20.6004 24.7412 19.8758 24.7412C9.80849 24.2754 2.30331 22.5414 2.30331 20.4451C2.30331 18.3489 9.80849 16.589 19.8758 16.1491V22.9814C20.5228 22.9814 22.4638 23.1366 25.0518 23.1366C28.1832 23.1366 29.736 23.1366 30.0207 22.9814V16.1749C40.0621 16.6149 47.5673 18.3747 47.5673 20.471C47.5673 22.5673 40.0621 24.3012 30.0207 24.7412H30.0725ZM30.0207 15.4503V9.34265H44.0476V0H5.95238V9.34265H19.9534V15.4503C8.56625 15.9938 0 18.2453 0 20.9369C0 23.6284 8.56625 25.9058 19.9534 26.4234V46.0404H30.0725V26.4234C41.4596 25.9058 50 23.6284 50 20.9369C50 18.2453 41.4596 15.9938 30.0725 15.4503" fill="white"/>
</g>
<defs>
<clipPath id="clip0_87_1585">
<rect width="50" height="46.0404" fill="white"/>
</clipPath>
</defs>
</svg>
